<svg width="37" height="46" viewBox="0 0 37 46" fill="none" xmlns="http://www.w3.org/2000/svg">
<path d="M18.5557 21.664L18.563 21.667L18.5704 21.6698C18.7467 21.7382 18.908 21.8402 19.0452 21.9703L23.5384 26.4634L23.5407 26.4657C23.6772 26.6011 23.7855 26.7621 23.8594 26.9395C23.9333 27.1169 23.9714 27.3072 23.9714 27.4994C23.9714 27.6916 23.9333 27.8819 23.8594 28.0593C23.7855 28.2367 23.6772 28.3977 23.5407 28.5331L23.5407 28.5331L23.5361 28.5377C23.4008 28.6741 23.2398 28.7824 23.0623 28.8564C22.8849 28.9303 22.6946 28.9683 22.5024 28.9683C22.3102 28.9683 22.12 28.9303 21.9425 28.8564C21.7665 28.783 21.6066 28.6758 21.4719 28.5409L20.8234 27.87L19.4583 26.4578V28.4219V34.2494C19.4583 34.6355 19.3049 35.0058 19.0319 35.2789C18.7589 35.5519 18.3886 35.7053 18.0024 35.7053C17.6163 35.7053 17.246 35.5519 16.973 35.2789C16.6999 35.0058 16.5466 34.6355 16.5466 34.2494V28.4219V26.4578L15.1815 27.87L14.5341 28.5396C14.2598 28.8117 13.889 28.9645 13.5024 28.9645C13.1139 28.9645 12.7412 28.8101 12.4665 28.5354C12.1917 28.2606 12.0374 27.888 12.0374 27.4994C12.0374 27.1108 12.1917 26.7382 12.4665 26.4634L16.9596 21.9703C17.0969 21.8402 17.2582 21.7382 17.4345 21.6698L17.4419 21.667L17.4492 21.664C17.8037 21.5183 18.2012 21.5183 18.5557 21.664ZM35.0733 15.5069V15.6369L35.1148 15.76C35.1588 15.891 35.1901 16.0259 35.2083 16.1628V16.2494V38.7494C35.2083 40.329 34.5808 41.8439 33.4639 42.9608C32.3469 44.0778 30.832 44.7053 29.2524 44.7053H6.75244C5.17284 44.7053 3.65794 44.0778 2.541 42.9608C1.42405 41.8439 0.796559 40.329 0.796559 38.7494V7.2494C0.796559 5.66981 1.42405 4.1549 2.541 3.03796C3.65794 1.92102 5.17284 1.29352 6.75244 1.29352H20.304C20.4455 1.32692 20.5821 1.37855 20.7105 1.44719L20.8859 1.54102H21.0849H21.1148C21.2126 1.59922 21.3042 1.66768 21.3878 1.74533L34.869 15.2266C34.9467 15.3102 35.0151 15.4017 35.0733 15.4996V15.5069ZM23.064 7.61038L21.7083 6.25473V8.1719V11.7494C21.7083 12.5568 22.029 13.331 22.5999 13.9019C23.1708 14.4728 23.9451 14.7935 24.7524 14.7935H28.3299H30.2471L28.8915 13.4379L23.064 7.61038ZM4.59992 40.9019L5.16145 40.3404L4.59993 40.9019C5.17081 41.4728 5.94509 41.7935 6.75244 41.7935H29.2524C30.0598 41.7935 30.8341 41.4728 31.405 40.9019C31.9758 40.331 32.2966 39.5568 32.2966 38.7494V18.4994V17.7053H31.5024H24.7524C23.1728 17.7053 21.6579 17.0778 20.541 15.9608C19.4241 14.8439 18.7966 13.329 18.7966 11.7494V4.9994V4.20529H18.0024H6.75244C5.94509 4.20529 5.17081 4.52601 4.59993 5.09689C4.02904 5.66777 3.70832 6.44205 3.70832 7.2494V38.7494C3.70832 39.5568 4.02904 40.331 4.59992 40.9019Z" fill="#001737" stroke="white" stroke-width="1.58824"/>
</svg>
